# xmcd
#
# Track frame offsets: 
#        182
#        12932
#        32332
#        47675
#        61240
#        75677
#        88622
#        101985
#        118540
#        134110
#        149107
#        164935
#        183065
#        200160
#        216082
#        232207
#        249825
#        265720
#        282370
#        299827
#
# Disc length: 4222 seconds
#
# Revision: 8
# Processed by: cddbd v1.5.2PL0 Copyright (c) Steve Scherf et al.
# Submitted via: ExactAudioCopy v0.95b4
#
DISCID=3b107c14
DTITLE=Various Artist - Just The Best 24 (2000_02) - CD 2
DYEAR=2000
DGENRE=Pop
TTITLE0=Guano Apes - Big In Japan
TTITLE1=Toten Hosen - Bayern
TTITLE2=HIM - Right Here In My Arms
TTITLE3=Moby - Natural Blues
TTITLE4=Gigi D'Agostino - Bla Bla Bla
TTITLE5=Kosmonova - Danse Avec Moi !
TTITLE6=Hypertraxx - The Darkside
TTITLE7=U96 - Das Boot 2001
TTITLE8=Paffendorf - Where Are You
TTITLE9=Members Of Mayday - Datapop
TTITLE10=Mabel - Disco - Disco
TTITLE11=Tom Novy feat. Lima - Now Or Never
TTITLE12=Dynamite Deluxe - Ladies and Gentlemen
TTITLE13=Steps - Say You'll Be Mine
TTITLE14=Passion Fruit - Wonderland
TTITLE15=Loona - La Vida (Es Una Flor)
TTITLE16=Eiffel 65 - Too Much Of Heaven
TTITLE17=Aqua - Cartoon Heroes
TTITLE18=French Affair - Do What You Like
TTITLE19=A*Teens - Gimme Gimme Gimme (A Man After Midnight)
EXTD=
EXTT0=
EXTT1=
EXTT2=
EXTT3=
EXTT4=
EXTT5=
EXTT6=
EXTT7=
EXTT8=
EXTT9=
EXTT10=
EXTT11=
EXTT12=
EXTT13=
EXTT14=
EXTT15=
EXTT16=
EXTT17=
EXTT18=
EXTT19=
PLAYORDER=
